<?xml version="1.0" encoding="utf-8"?>
<!-- Generator: Adobe Illustrator 18.1.1, SVG Export Plug-In . SVG Version: 6.00 Build 0)  -->
<!DOCTYPE svg PUBLIC "-//W3C//DTD SVG 1.1//EN" "http://www.w3.org/Graphics/SVG/1.1/DTD/svg11.dtd">
<svg version="1.1" id="Layer_1" xmlns="http://www.w3.org/2000/svg" xmlns:xlink="http://www.w3.org/1999/xlink" x="0px" y="0px"
	 viewBox="0 0 300 300" enable-background="new 0 0 300 300" xml:space="preserve">
<path fill="#50151A" stroke="#50151A" stroke-width="13.2484" stroke-linecap="round" stroke-linejoin="round" stroke-miterlimit="10" d="
	M-167.5,181.8c-45.1,0-81.7-36.6-81.7-81.7c0-13.7,3.4-26.7,9.4-38c-38.2,10.4-66.2,45.3-66.2,86.7c0,49.6,40.2,89.9,89.9,89.9
	c41.5,0,76.3-28.1,86.7-66.2C-140.8,178.4-153.8,181.8-167.5,181.8z"/>
<path fill="#50151A" stroke="#50151A" stroke-width="13.2484" stroke-linecap="round" stroke-linejoin="round" stroke-miterlimit="10" d="
	M118.7,100.1c0-13.7,3.4-26.7,9.4-38C90,72.5,61.9,107.3,61.9,148.8c0,6.7,0.8,13.2,2.2,19.5h91.3
	C133.3,153.6,118.7,128.6,118.7,100.1z"/>
<path fill="none" stroke="#50151A" stroke-width="13.2484" stroke-linecap="round" stroke-linejoin="round" stroke-miterlimit="10" d="
	M200.5,181.8c-16.7,0-32.2-5-45.1-13.6H64.1c8.9,40.3,44.8,70.4,87.7,70.4c41.5,0,76.3-28.1,86.7-66.2
	C227.1,178.4,214.2,181.8,200.5,181.8z"/>
<path fill="none" stroke="#50151A" stroke-width="13.2484" stroke-linecap="round" stroke-linejoin="round" stroke-miterlimit="10" d="
	M578.8,181.8c-45.1,0-81.7-36.6-81.7-81.7c0-13.7,3.4-26.7,9.4-38c-38.2,10.4-66.2,45.3-66.2,86.7c0,49.6,40.2,89.9,89.9,89.9
	c41.5,0,76.3-28.1,86.7-66.2C605.5,178.4,592.5,181.8,578.8,181.8z"/>
</svg>
