<?xml version="1.0" encoding="utf-8"?>
<!-- Generator: Adobe Illustrator 18.1.1, SVG Export Plug-In . SVG Version: 6.00 Build 0)  -->
<!DOCTYPE svg PUBLIC "-//W3C//DTD SVG 1.1//EN" "http://www.w3.org/Graphics/SVG/1.1/DTD/svg11.dtd">
<svg version="1.1" id="Layer_1" xmlns="http://www.w3.org/2000/svg" xmlns:xlink="http://www.w3.org/1999/xlink" x="0px" y="0px"
	 viewBox="0 0 104.3 104.7" enable-background="new 0 0 104.3 104.7" xml:space="preserve">
<path fill="#B35361" d="M78.4,14.7H25.9c-5.2,0-9.5,4.3-9.5,9.5v62.7c0,5.2,4.3,9.5,9.5,9.5h52.5c5.2,0,9.5-4.3,9.5-9.5V24.2
	C87.9,19,83.6,14.7,78.4,14.7z M81.8,81.5c0,4.3-3.5,7.9-7.9,7.9H30.4c-4.3,0-7.9-3.5-7.9-7.9V29.5c0-4.3,3.5-7.9,7.9-7.9h43.5
	c4.3,0,7.9,3.5,7.9,7.9V81.5z"/>
<path fill="#B35361" d="M37.6,27.4L37.6,27.4c-1.6,0-3-1.3-3-3v-13c0-1.6,1.3-3,3-3h0c1.6,0,3,1.3,3,3v13
	C40.6,26,39.2,27.4,37.6,27.4z"/>
<path fill="#B35361" d="M50.9,27.4L50.9,27.4c-1.6,0-3-1.3-3-3v-13c0-1.6,1.3-3,3-3h0c1.6,0,3,1.3,3,3v13
	C53.9,26,52.6,27.4,50.9,27.4z"/>
<path fill="#B35361" d="M64.3,27.4L64.3,27.4c-1.6,0-3-1.3-3-3v-13c0-1.6,1.3-3,3-3l0,0c1.6,0,3,1.3,3,3v13
	C67.3,26,65.9,27.4,64.3,27.4z"/>
<path fill="#B35361" d="M56,67.2c1-0.5,2.6-1.7,4.3-4.1c0.3,0.2,0.7,0.2,1,0.1c10.8-4.3,12-17.2,12.2-21.2c0-0.7-0.5-1.2-1.2-1.2
	h-6.1c-0.1,0-0.2,0-0.4,0.1c0-1,0.1-2.1,0.1-3.1c0-0.8-0.7-1.5-1.5-1.5h-12h-0.9h-12c-0.8,0-1.5,0.7-1.5,1.5c0,1.1,0,2.1,0.1,3.1
	c-0.1,0-0.2,0-0.3,0h-6.1c-0.7,0-1.2,0.5-1.2,1.2c0.1,4,1.3,17,12.2,21.2c0.3,0.1,0.7,0.1,1-0.1c1.7,2.5,3.4,3.6,4.3,4.1
	c0.5,0.3,0.8,0.8,0.8,1.3v6.6c0,0.8-0.7,1.5-1.5,1.5h-2.3c-0.5,0-0.9,0.2-1.2,0.6L40,82.8c-0.7,1,0,2.4,1.2,2.4h10.5h0.9h10.5
	c1.2,0,1.9-1.4,1.2-2.4l-4.1-5.6c-0.3-0.4-0.7-0.6-1.2-0.6h-2.3c-0.8,0-1.5-0.7-1.5-1.5v-6.6C55.2,68,55.5,67.4,56,67.2z M65.8,44.5
	c0.1,0,0.1,0,0.2,0h1.7c0.7,0,1.2,0.6,1.2,1.2c-0.1,2.5-1,8.3-5.5,11.2C64.4,53.9,65.3,49.8,65.8,44.5z M35.5,45.8
	c0-0.7,0.5-1.2,1.2-1.2h1.7c0,0,0.1,0,0.1,0c0.4,5.2,1.3,9.3,2.4,12.4C36.5,54,35.7,48.3,35.5,45.8z"/>
</svg>
