<?xml version="1.0" encoding="utf-8"?>
<!-- Generator: Adobe Illustrator 18.1.1, SVG Export Plug-In . SVG Version: 6.00 Build 0)  -->
<!DOCTYPE svg PUBLIC "-//W3C//DTD SVG 1.1//EN" "http://www.w3.org/Graphics/SVG/1.1/DTD/svg11.dtd">
<svg version="1.1" id="Layer_1" xmlns="http://www.w3.org/2000/svg" xmlns:xlink="http://www.w3.org/1999/xlink" x="0px" y="0px"
	 viewBox="0 0 104.3 104.7" enable-background="new 0 0 104.3 104.7" xml:space="preserve">
<path fill="#B35361" d="M78.4,13.5H25.9c-5.2,0-9.5,4.3-9.5,9.5v62.7c0,5.2,4.3,9.5,9.5,9.5h52.5c5.2,0,9.5-4.3,9.5-9.5V23
	C87.9,17.8,83.6,13.5,78.4,13.5z M81.8,80.3c0,4.3-3.5,7.9-7.9,7.9H30.4c-4.3,0-7.9-3.5-7.9-7.9V28.4c0-4.3,3.5-7.9,7.9-7.9h43.5
	c4.3,0,7.9,3.5,7.9,7.9V80.3z"/>
<path fill="#B35361" d="M37.6,26.2L37.6,26.2c-1.6,0-3-1.3-3-3v-13c0-1.6,1.3-3,3-3h0c1.6,0,3,1.3,3,3v13
	C40.6,24.9,39.2,26.2,37.6,26.2z"/>
<path fill="#B35361" d="M50.9,26.2L50.9,26.2c-1.6,0-3-1.3-3-3v-13c0-1.6,1.3-3,3-3h0c1.6,0,3,1.3,3,3v13
	C53.9,24.9,52.6,26.2,50.9,26.2z"/>
<path fill="#B35361" d="M64.3,26.2L64.3,26.2c-1.6,0-3-1.3-3-3v-13c0-1.6,1.3-3,3-3h0c1.6,0,3,1.3,3,3v13
	C67.3,24.9,65.9,26.2,64.3,26.2z"/>
<path fill="#B35361" d="M64.6,41.3c-8.1-2.7-8.7-7.6-8.7-7.6c-0.1-0.9-0.9-1.6-1.8-1.6c-1,0-1.8,0.8-1.8,1.8v26.3
	c-2-1.6-4.7-2.6-7.7-2.6c-6.2,0-11.3,4.3-11.3,9.5c0,5.3,5.1,9.5,11.3,9.5c14.1,0,11.3-15.8,11.3-25.5c3.8,3,12.2,3.9,14.7,5.2
	c0.5,0.3,4.1,2,4.1,2.9C75.5,46.4,72.6,44,64.6,41.3z"/>
</svg>
