<?xml version="1.0" encoding="utf-8"?>
<!-- Generator: Adobe Illustrator 18.1.1, SVG Export Plug-In . SVG Version: 6.00 Build 0)  -->
<!DOCTYPE svg PUBLIC "-//W3C//DTD SVG 1.1//EN" "http://www.w3.org/Graphics/SVG/1.1/DTD/svg11.dtd">
<svg version="1.1" id="Layer_1" xmlns="http://www.w3.org/2000/svg" xmlns:xlink="http://www.w3.org/1999/xlink" x="0px" y="0px"
	 viewBox="0 0 24.4 30.6" enable-background="new 0 0 24.4 30.6" xml:space="preserve">
<rect y="0" fill="#FFFFFF" width="24.4" height="30.6"/>
<path fill="#004056" d="M12.1,1.2c-5.5,0-9.9,4.4-9.9,9.9c0,5.3,4.2,9.6,9.4,9.9c0-2.2,0-4.5,0-6.7c0-0.1,0-0.1-0.1-0.1
	c-0.8,0-1.6,0-2.4,0c0,0-0.1,0-0.1,0c0-1,0-2,0-2.9c0,0,0.1,0,0.1,0c0.8,0,1.6,0,2.4,0c0.1,0,0.1,0,0.1-0.1c0-0.7,0-1.3,0-2
	c0-0.2,0-0.5,0-0.7c0-0.3,0.1-0.7,0.2-1c0.3-0.9,0.9-1.6,1.8-1.9c0.5-0.2,0.9-0.3,1.4-0.3c0.4,0,0.7,0,1.1,0c0.3,0,0.6,0,0.9,0
	c0.2,0,0.3,0,0.5,0c0,0,0.1,0,0,0.1c0,0.8,0,1.7,0,2.5c0,0,0,0,0,0.1c0,0,0,0-0.1,0c-0.5,0-1,0-1.4,0c-0.2,0-0.5,0-0.7,0.1
	c-0.3,0.1-0.6,0.3-0.7,0.7c-0.1,0.2-0.1,0.3-0.1,0.5c0,0.7,0,1.3,0,2c0,0.1,0,0.1,0.1,0.1c0.9,0,1.8,0,2.8,0c0,0,0,0,0.1,0
	c0,0.1,0,0.1,0,0.2c0,0.3-0.1,0.6-0.1,0.9c0,0.3-0.1,0.6-0.1,0.9c0,0.3-0.1,0.6-0.1,1c0,0,0,0,0,0c0,0,0,0-0.1,0c-0.8,0-1.6,0-2.4,0
	c-0.1,0-0.1,0-0.1,0.1c0,1,0,2,0,3c0,1.1,0,2.3,0,3.4c4.2-1.1,7.3-5,7.3-9.5C22,5.6,17.6,1.2,12.1,1.2z"/>
</svg>
