<?xml version="1.0" encoding="utf-8"?>
<!-- Generator: Adobe Illustrator 18.1.1, SVG Export Plug-In . SVG Version: 6.00 Build 0)  -->
<!DOCTYPE svg PUBLIC "-//W3C//DTD SVG 1.1//EN" "http://www.w3.org/Graphics/SVG/1.1/DTD/svg11.dtd">
<svg version="1.1" id="Layer_1" xmlns="http://www.w3.org/2000/svg" xmlns:xlink="http://www.w3.org/1999/xlink" x="0px" y="0px"
	 viewBox="0 0 43.2 43.2" enable-background="new 0 0 43.2 43.2" xml:space="preserve">
<path fill="#004056" d="M21.6,1.9c-10.9,0-19.8,8.8-19.8,19.8c0,10.6,8.3,19.2,18.8,19.7c0-4.5,0-8.9,0-13.4c0-0.1,0-0.1-0.1-0.1
	c-1.6,0-3.2,0-4.7,0c-0.1,0-0.1,0-0.2,0c0-2,0-3.9,0-5.9c0.1,0,0.1,0,0.2,0c1.6,0,3.2,0,4.8,0c0.1,0,0.1,0,0.1-0.1c0-1.3,0-2.7,0-4
	c0-0.5,0-1,0.1-1.5c0.1-0.7,0.2-1.3,0.4-2c0.7-1.8,1.9-3.1,3.7-3.9c0.9-0.4,1.9-0.6,2.9-0.6c0.7,0,1.5,0,2.2,0
	c0.6,0,1.1,0.1,1.7,0.1c0.3,0,0.6,0.1,1,0.1c0.1,0,0.1,0,0.1,0.1c0,1.7,0,3.4,0,5c0,0,0,0.1,0,0.1c-0.1,0-0.1,0-0.1,0
	c-1,0-1.9,0-2.9,0c-0.5,0-0.9,0-1.4,0.2c-0.7,0.2-1.2,0.6-1.4,1.3c-0.1,0.3-0.2,0.7-0.2,1c0,1.3,0,2.7,0,4c0,0.1,0,0.1,0.1,0.1
	c1.8,0,3.7,0,5.5,0c0,0,0.1,0,0.2,0c0,0.1,0,0.2,0,0.3c-0.1,0.6-0.2,1.2-0.2,1.8c-0.1,0.6-0.2,1.2-0.2,1.8c-0.1,0.6-0.2,1.3-0.2,1.9
	c0,0.1,0,0.1-0.1,0.1c0,0-0.1,0-0.1,0c-1.6,0-3.1,0-4.7,0c-0.2,0-0.2,0-0.2,0.2c0,2,0,4,0,5.9c0,2.3,0,4.5,0,6.8
	c8.4-2.3,14.6-9.9,14.6-19.1C41.3,10.7,32.5,1.9,21.6,1.9z"/>
</svg>
