<?xml version="1.0" encoding="utf-8"?>
<!-- Generator: Adobe Illustrator 18.1.1, SVG Export Plug-In . SVG Version: 6.00 Build 0)  -->
<!DOCTYPE svg PUBLIC "-//W3C//DTD SVG 1.1//EN" "http://www.w3.org/Graphics/SVG/1.1/DTD/svg11.dtd">
<svg version="1.1" id="Layer_1" xmlns="http://www.w3.org/2000/svg" xmlns:xlink="http://www.w3.org/1999/xlink" x="0px" y="0px"
	 viewBox="0 0 43.2 43.2" enable-background="new 0 0 43.2 43.2" xml:space="preserve">
<g>
	<path fill="#004056" d="M21.6,25.5c2.1,0,3.9-1.7,3.9-3.9c0-2.1-1.7-3.9-3.9-3.9c-2.1,0-3.9,1.7-3.9,3.9
		C17.7,23.7,19.5,25.5,21.6,25.5z"/>
	<path fill="#004056" d="M26.3,17.7c0.8,0,1.5,0,2.3,0c0.5,0,0.8-0.3,0.8-0.8c0-0.4,0-0.8,0-1.1s0-0.8,0-1.1c0-0.5-0.3-0.8-0.8-0.8
		c-0.7,0-1.5,0-2.2,0c-0.5,0-0.8,0.3-0.8,0.8c0,0.8,0,1.5,0,2.3C25.5,17.4,25.8,17.7,26.3,17.7z"/>
	<path fill="#004056" d="M25,26.7c-2.1,1.4-4.4,1.5-6.5,0.2c-2.6-1.6-3.5-3.9-2.9-6.9c-0.6,0-1.1,0-1.7,0c0,0.1,0,0.1,0,0.2
		c0,2.8,0,5.5,0,8.3c0,0.5,0.3,0.9,0.9,0.9c4.6,0,9.2,0,13.8,0c0.5,0,0.8-0.3,0.8-0.8c0-2.8,0-5.5,0-8.3c0-0.1,0-0.1,0-0.2
		c-0.6,0-1.2,0-1.7,0C28.2,22.8,27.4,25.1,25,26.7z"/>
	<path fill="#004056" d="M21.6,1.9c-10.9,0-19.8,8.8-19.8,19.8s8.8,19.7,19.8,19.7c10.9,0,19.7-8.8,19.7-19.7S32.5,1.9,21.6,1.9z
		 M31.7,29.3c0,1.4-1,2.4-2.4,2.4c-5.1,0-10.3,0-15.4,0c-1.4,0-2.4-1-2.4-2.4c0-5.1,0-10.3,0-15.4c0-1.4,1-2.4,2.4-2.4
		c5.1,0,10.3,0,15.4,0c1.4,0,2.4,1,2.4,2.4c0,2.6,0,5.1,0,7.7C31.7,24.2,31.7,26.7,31.7,29.3z"/>
</g>
</svg>
