<?xml version="1.0" encoding="utf-8"?>
<!-- Generator: Adobe Illustrator 18.1.1, SVG Export Plug-In . SVG Version: 6.00 Build 0)  -->
<!DOCTYPE svg PUBLIC "-//W3C//DTD SVG 1.1//EN" "http://www.w3.org/Graphics/SVG/1.1/DTD/svg11.dtd">
<svg version="1.1" id="Layer_1" xmlns="http://www.w3.org/2000/svg" xmlns:xlink="http://www.w3.org/1999/xlink" x="0px" y="0px"
	 viewBox="0 0 24.5 30.2" enable-background="new 0 0 24.5 30.2" xml:space="preserve">
<rect x="0" y="-0.2" fill="#FFFFFF" width="24.5" height="30.6"/>
<g>
	<circle fill="#004056" cx="12.2" cy="10.9" r="1.9"/>
	<path fill="#004056" d="M14.6,9c0.4,0,0.8,0,1.1,0c0.2,0,0.4-0.2,0.4-0.4c0-0.2,0-0.4,0-0.6c0-0.2,0-0.4,0-0.6
		C16.1,7.2,16,7,15.7,7c-0.4,0-0.7,0-1.1,0c-0.2,0-0.4,0.2-0.4,0.4c0,0.4,0,0.8,0,1.1C14.2,8.8,14.3,9,14.6,9z"/>
	<path fill="#004056" d="M14,13.5c-1,0.7-2.2,0.7-3.3,0.1c-1.3-0.8-1.7-2-1.5-3.4c-0.3,0-0.6,0-0.9,0c0,0,0,0.1,0,0.1
		c0,1.4,0,2.8,0,4.1c0,0.3,0.2,0.4,0.4,0.4c2.3,0,4.6,0,6.9,0c0.3,0,0.4-0.2,0.4-0.4c0-1.4,0-2.8,0-4.1c0,0,0-0.1,0-0.1
		c-0.3,0-0.6,0-0.9,0C15.5,11.5,15.1,12.7,14,13.5z"/>
	<path fill="#004056" d="M12.2,1c-5.5,0-9.9,4.4-9.9,9.9s4.4,9.9,9.9,9.9c5.5,0,9.9-4.4,9.9-9.9S17.7,1,12.2,1z M17.3,14.7
		c0,0.7-0.5,1.2-1.2,1.2c-2.6,0-5.1,0-7.7,0c-0.7,0-1.2-0.5-1.2-1.2c0-2.6,0-5.1,0-7.7c0-0.7,0.5-1.2,1.2-1.2c2.6,0,5.1,0,7.7,0
		c0.7,0,1.2,0.5,1.2,1.2c0,1.3,0,2.6,0,3.9C17.3,12.2,17.3,13.5,17.3,14.7z"/>
</g>
</svg>
