<?xml version="1.0" encoding="utf-8"?>
<width="300" height="300" viewBox="0 0 300 300">
<!-- Generator: Adobe Illustrator 18.1.1, SVG Export Plug-In . SVG Version: 6.00 Build 0)  -->
<!DOCTYPE svg PUBLIC "-//W3C//DTD SVG 1.1//EN" "http://www.w3.org/Graphics/SVG/1.1/DTD/svg11.dtd">
<svg version="1.1" id="Layer_1" xmlns="http://www.w3.org/2000/svg" xmlns:xlink="http://www.w3.org/1999/xlink" x="0px" y="0px"
	 viewBox="0 0 300 300" enable-background="new 0 0 300 300" xml:space="preserve">
<circle fill="#47B29D" stroke="#50151A" stroke-width="11.4819" stroke-miterlimit="10" cx="143.9" cy="80.2" r="54.5"/>
<path fill="#50151A" d="M121,36.9c0,0-12.5,27.4-0.3,43.3l-30.6,9C90.1,89.3,65.2,56.1,121,36.9z"/>
<circle fill="#B35361" stroke="#50151A" stroke-width="11.4819" stroke-miterlimit="10" cx="101.7" cy="130.6" r="54.5"/>
<path fill="#50151A" d="M78.9,87.3c0,0-12.5,27.4-0.3,43.3l-30.6,9C47.9,139.7,23,106.4,78.9,87.3z"/>
<circle fill="#F7A559" stroke="#50151A" stroke-width="11.4819" stroke-miterlimit="10" cx="200.8" cy="130.6" r="54.5"/>
<path fill="#50151A" d="M177.9,87.3c0,0-12.5,27.4-0.3,43.3l-30.6,9C147,139.7,122.1,106.4,177.9,87.3z"/>
<g>
	<path fill="#A6BECC" stroke="#50151A" stroke-width="13.0159" stroke-miterlimit="10" d="M270.6,165.4
		c0,59.8-53.5,108.2-119.6,108.2S31.4,225.1,31.4,165.4S270.6,105.6,270.6,165.4z"/>
	<path fill="#50151A" d="M73.7,130.2c0,0-11.5,90.9,91.2,143.3c0,0-130.8,2.2-131.9-116.2L73.7,130.2z"/>
</g>
<ellipse fill="none" stroke="#50151A" stroke-width="5.64" stroke-miterlimit="10" cx="184.8" cy="178.4" rx="15.2" ry="10.3"/>
<ellipse fill="none" stroke="#50151A" stroke-width="5.64" stroke-miterlimit="10" cx="219.9" cy="204.9" rx="12.3" ry="6.7"/>
<ellipse fill="none" stroke="#50151A" stroke-width="5.64" stroke-miterlimit="10" cx="231.7" cy="168.9" rx="11.8" ry="9.6"/>
<circle fill="none" stroke="#50151A" stroke-width="3.8273" stroke-miterlimit="10" cx="205.2" cy="154.8" r="4.5"/>
<circle fill="none" stroke="#50151A" stroke-width="3.8273" stroke-miterlimit="10" cx="184.8" cy="220.5" r="4.5"/>
</svg>
