<?xml version="1.0" encoding="utf-8"?>
<!-- Generator: Adobe Illustrator 18.1.1, SVG Export Plug-In . SVG Version: 6.00 Build 0)  -->
<!DOCTYPE svg PUBLIC "-//W3C//DTD SVG 1.1//EN" "http://www.w3.org/Graphics/SVG/1.1/DTD/svg11.dtd">
<svg version="1.1" id="Layer_1" xmlns="http://www.w3.org/2000/svg" xmlns:xlink="http://www.w3.org/1999/xlink" x="0px" y="0px"
	 viewBox="0 0 300 300" enable-background="new 0 0 300 300" xml:space="preserve">
<path fill="#50151A" stroke="#50151A" stroke-width="13.2484" stroke-linecap="round" stroke-linejoin="round" stroke-miterlimit="10" d="
	M194.2,181.8c-45.1,0-81.7-36.6-81.7-81.7c0-13.7,3.4-26.7,9.4-38c-38.2,10.4-66.2,45.3-66.2,86.7c0,49.6,40.2,89.9,89.9,89.9
	c41.5,0,76.3-28.1,86.7-66.2C220.8,178.4,207.9,181.8,194.2,181.8z"/>
<path fill="#50151A" stroke="#50151A" stroke-width="13.2484" stroke-linecap="round" stroke-linejoin="round" stroke-miterlimit="10" d="
	M460.4,100.1c0-13.7,3.4-26.7,9.4-38c-38.2,10.4-66.2,45.3-66.2,86.7c0,6.7,0.8,13.2,2.2,19.5h91.3
	C475,153.6,460.4,128.6,460.4,100.1z"/>
<path fill="none" stroke="#50151A" stroke-width="13.2484" stroke-linecap="round" stroke-linejoin="round" stroke-miterlimit="10" d="
	M542.1,181.8c-16.7,0-32.2-5-45.1-13.6h-91.3c8.9,40.3,44.8,70.4,87.7,70.4c41.5,0,76.3-28.1,86.7-66.2
	C568.8,178.4,555.9,181.8,542.1,181.8z"/>
<path fill="none" stroke="#50151A" stroke-width="13.2484" stroke-linecap="round" stroke-linejoin="round" stroke-miterlimit="10" d="
	M920.5,181.8c-45.1,0-81.7-36.6-81.7-81.7c0-13.7,3.4-26.7,9.4-38c-38.2,10.4-66.2,45.3-66.2,86.7c0,49.6,40.2,89.9,89.9,89.9
	c41.5,0,76.3-28.1,86.7-66.2C947.1,178.4,934.2,181.8,920.5,181.8z"/>
</svg>
