<?xml version="1.0" encoding="utf-8"?>
<!-- Generator: Adobe Illustrator 18.1.1, SVG Export Plug-In . SVG Version: 6.00 Build 0)  -->
<!DOCTYPE svg PUBLIC "-//W3C//DTD SVG 1.1//EN" "http://www.w3.org/Graphics/SVG/1.1/DTD/svg11.dtd">
<svg version="1.1" id="Layer_1" xmlns="http://www.w3.org/2000/svg" xmlns:xlink="http://www.w3.org/1999/xlink" x="0px" y="0px"
	 viewBox="0 0 283 109" enable-background="new 0 0 283 109" xml:space="preserve">
<g>
	<path fill="#004056" d="M86.8,33.6C75.8,33.6,67,42.4,67,53.3c0,10.6,8.3,19.2,18.8,19.7c0-4.5,0-8.9,0-13.4c0-0.1,0-0.1-0.1-0.1
		c-1.6,0-3.2,0-4.7,0c-0.1,0-0.1,0-0.2,0c0-2,0-3.9,0-5.9c0.1,0,0.1,0,0.2,0c1.6,0,3.2,0,4.8,0c0.1,0,0.1,0,0.1-0.1c0-1.3,0-2.7,0-4
		c0-0.5,0-1,0.1-1.5c0.1-0.7,0.2-1.3,0.4-2c0.7-1.8,1.9-3.1,3.7-3.9c0.9-0.4,1.9-0.6,2.9-0.6c0.7,0,1.5,0,2.2,0
		c0.6,0,1.1,0.1,1.7,0.1c0.3,0,0.6,0.1,1,0.1c0.1,0,0.1,0,0.1,0.1c0,1.7,0,3.4,0,5c0,0,0,0.1,0,0.1c-0.1,0-0.1,0-0.1,0
		c-1,0-1.9,0-2.9,0c-0.5,0-0.9,0-1.4,0.2c-0.7,0.2-1.2,0.6-1.4,1.3c-0.1,0.3-0.2,0.7-0.2,1c0,1.3,0,2.7,0,4c0,0.1,0,0.1,0.1,0.1
		c1.8,0,3.7,0,5.5,0c0,0,0.1,0,0.2,0c0,0.1,0,0.2,0,0.3c-0.1,0.6-0.2,1.2-0.2,1.8c-0.1,0.6-0.2,1.2-0.2,1.8
		c-0.1,0.6-0.2,1.3-0.2,1.9c0,0.1,0,0.1-0.1,0.1c0,0-0.1,0-0.1,0c-1.6,0-3.1,0-4.7,0c-0.2,0-0.2,0-0.2,0.2c0,2,0,4,0,5.9
		c0,2.3,0,4.5,0,6.8c8.4-2.3,14.6-9.9,14.6-19.1C106.5,42.4,97.7,33.6,86.8,33.6z"/>
	<path fill="#004056" d="M136.8,33.6c-10.9,0-19.8,8.8-19.8,19.8s8.8,19.7,19.8,19.7c10.9,0,19.8-8.8,19.8-19.7
		S147.7,33.6,136.8,33.6z M147.5,48.3c-0.1,0.2-0.3,0.4-0.4,0.6c-0.3,0.4-0.6,0.7-1,1c-0.2,0.2-0.5,0.4-0.7,0.6
		c-0.1,0-0.1,0.1-0.1,0.2c0,0.2,0,0.4,0,0.6c0,0.6-0.1,1.1-0.1,1.7c-0.1,0.7-0.3,1.4-0.5,2.1c-0.2,0.7-0.5,1.4-0.9,2.1
		c-0.4,0.7-0.8,1.4-1.3,2c-0.2,0.3-0.4,0.5-0.7,0.7c-0.5,0.5-1,0.9-1.5,1.3c-0.5,0.4-1,0.7-1.5,1c-0.6,0.3-1.3,0.6-2,0.9
		c-0.7,0.2-1.4,0.4-2.2,0.5c-0.5,0.1-0.9,0.1-1.4,0.1c-0.2,0-0.5,0-0.7,0c-0.4,0-0.8,0-1.2,0c-0.6-0.1-1.2-0.2-1.8-0.3
		c-0.7-0.2-1.4-0.4-2-0.7c-0.5-0.2-1-0.5-1.4-0.8c0,0-0.1,0-0.1-0.1c0,0,0,0,0-0.1c0,0,0,0,0.1,0c0.2,0,0.4,0,0.5,0
		c0.3,0,0.5,0,0.8,0c0.2,0,0.4,0,0.5,0c0.5-0.1,1-0.1,1.4-0.3c0.6-0.2,1.2-0.4,1.7-0.7c0.4-0.2,0.8-0.5,1.2-0.7c0,0,0,0,0.1-0.1
		c-0.2,0-0.3,0-0.5-0.1c-0.4-0.1-0.8-0.2-1.1-0.3c-0.6-0.3-1.1-0.6-1.5-1.1c-0.4-0.4-0.7-1-0.9-1.5c0-0.1,0-0.2,0.1-0.1
		c0.3,0,0.5,0.1,0.8,0.1c0.3,0,0.6,0,0.9-0.1c-0.2-0.1-0.4-0.1-0.6-0.2c-0.4-0.2-0.8-0.4-1.2-0.7c-0.5-0.4-0.8-0.9-1.1-1.4
		c-0.2-0.5-0.4-1-0.4-1.5c0-0.1,0-0.3,0-0.4c0-0.1,0.1-0.1,0.2-0.1c0.5,0.2,1,0.4,1.5,0.5c0,0,0.1,0,0.1,0c0,0,0.1,0,0.1,0
		c-0.2-0.2-0.4-0.4-0.6-0.6c-0.3-0.3-0.5-0.6-0.7-0.9c-0.3-0.5-0.5-1-0.5-1.6c-0.1-0.8,0-1.6,0.3-2.3c0.1-0.1,0.1-0.3,0.2-0.4
		c0.1-0.1,0.1-0.1,0.2,0c0.2,0.2,0.4,0.4,0.6,0.7c0.5,0.5,1,1,1.6,1.4c0.5,0.4,1,0.7,1.6,1c0.6,0.3,1.3,0.6,2,0.9
		c0.7,0.2,1.5,0.4,2.2,0.5c0.3,0,0.5,0.1,0.8,0.1c0.1,0,0.1,0,0.1-0.1c-0.1-0.3-0.1-0.6-0.1-1c0-0.5,0.1-1.1,0.3-1.6
		c0.2-0.6,0.6-1.1,1-1.5c0.6-0.6,1.4-1,2.2-1.2c0.2,0,0.3,0,0.5,0c0,0,0,0,0,0c0,0,0.1,0,0.1,0c0,0,0.1,0,0.1,0c0.2,0,0.4,0,0.6,0
		c0.1,0,0.3,0,0.4,0c0.2,0,0.5,0.1,0.7,0.2c0.5,0.2,0.9,0.4,1.3,0.7c0.1,0.1,0.2,0.2,0.4,0.3c0.1,0.1,0.1,0.1,0.2,0.1
		c0.8-0.2,1.6-0.4,2.3-0.8c0.1,0,0.2-0.1,0.3-0.1c0,0,0.1,0,0.1,0c0,0,0,0.1,0,0.1c-0.1,0.3-0.3,0.6-0.4,0.9c-0.3,0.5-0.8,1-1.3,1.3
		c0,0-0.1,0-0.1,0.1c0,0,0,0,0,0c0.2-0.1,0.4-0.1,0.5-0.1c0.6-0.1,1.2-0.3,1.7-0.5C147.4,48.3,147.5,48.3,147.5,48.3
		C147.5,48.3,147.5,48.3,147.5,48.3z"/>
	<g>
		<path fill="#004056" d="M186.7,57.2c2.1,0,3.9-1.7,3.9-3.9c0-2.1-1.7-3.9-3.9-3.9c-2.1,0-3.9,1.7-3.9,3.9
			C182.8,55.5,184.5,57.2,186.7,57.2z"/>
		<path fill="#004056" d="M191.3,49.5c0.8,0,1.5,0,2.3,0c0.5,0,0.8-0.3,0.8-0.8c0-0.4,0-0.8,0-1.1s0-0.8,0-1.1
			c0-0.5-0.3-0.8-0.8-0.8c-0.7,0-1.5,0-2.2,0c-0.5,0-0.8,0.3-0.8,0.8c0,0.8,0,1.5,0,2.3C190.5,49.1,190.9,49.4,191.3,49.5z"/>
		<path fill="#004056" d="M190.1,58.5c-2.1,1.4-4.4,1.5-6.5,0.2c-2.6-1.6-3.5-3.9-2.9-6.9c-0.6,0-1.1,0-1.7,0c0,0.1,0,0.1,0,0.2
			c0,2.8,0,5.5,0,8.3c0,0.5,0.3,0.9,0.9,0.9c4.6,0,9.2,0,13.8,0c0.5,0,0.8-0.3,0.8-0.8c0-2.8,0-5.5,0-8.3c0-0.1,0-0.1,0-0.2
			c-0.6,0-1.2,0-1.7,0C193.2,54.6,192.4,56.9,190.1,58.5z"/>
		<path fill="#004056" d="M186.6,33.6c-10.9,0-19.8,8.8-19.8,19.8s8.8,19.8,19.8,19.8c10.9,0,19.8-8.8,19.8-19.8
			S197.6,33.6,186.6,33.6z M196.7,61c0,1.4-1,2.4-2.4,2.4c-5.1,0-10.3,0-15.4,0c-1.4,0-2.4-1-2.4-2.4c0-5.1,0-10.3,0-15.4
			c0-1.4,1-2.4,2.4-2.4c5.1,0,10.3,0,15.4,0c1.4,0,2.4,1,2.4,2.4c0,2.6,0,5.1,0,7.7C196.7,55.9,196.7,58.5,196.7,61z"/>
	</g>
</g>
</svg>
