<?xml version="1.0" encoding="utf-8"?>
<!-- Generator: Adobe Illustrator 18.1.1, SVG Export Plug-In . SVG Version: 6.00 Build 0)  -->
<!DOCTYPE svg PUBLIC "-//W3C//DTD SVG 1.1//EN" "http://www.w3.org/Graphics/SVG/1.1/DTD/svg11.dtd">
<svg version="1.1" id="Layer_1" xmlns="http://www.w3.org/2000/svg" xmlns:xlink="http://www.w3.org/1999/xlink" x="0px" y="0px"
	 viewBox="0 0 82 69" enable-background="new 0 0 82 69" xml:space="preserve">
<path fill="#FFFFFF" d="M56.6,26.6H23.5c-1.2,0-2.1-0.9-2.1-2.1v-1c0-1.2,0.9-2.1,2.1-2.1h33.1c1.2,0,2.1,0.9,2.1,2.1v1
	C58.7,25.6,57.8,26.6,56.6,26.6z"/>
<path fill="#FFFFFF" d="M56.6,37.4H23.5c-1.2,0-2.1-0.9-2.1-2.1v-1c0-1.2,0.9-2.1,2.1-2.1h33.1c1.2,0,2.1,0.9,2.1,2.1v1
	C58.7,36.4,57.8,37.4,56.6,37.4z"/>
<path fill="#FFFFFF" d="M56.6,48.2H23.5c-1.2,0-2.1-0.9-2.1-2.1v-1c0-1.2,0.9-2.1,2.1-2.1h33.1c1.2,0,2.1,0.9,2.1,2.1v1
	C58.7,47.2,57.8,48.2,56.6,48.2z"/>
</svg>
