<?xml version="1.0" encoding="utf-8"?>
<!-- Generator: Adobe Illustrator 18.1.1, SVG Export Plug-In . SVG Version: 6.00 Build 0)  -->
<!DOCTYPE svg PUBLIC "-//W3C//DTD SVG 1.1//EN" "http://www.w3.org/Graphics/SVG/1.1/DTD/svg11.dtd">
<svg version="1.1" id="Layer_1" xmlns="http://www.w3.org/2000/svg" xmlns:xlink="http://www.w3.org/1999/xlink" x="0px" y="0px"
	 viewBox="0 0 24.5 30.2" enable-background="new 0 0 24.5 30.2" xml:space="preserve">
<rect x="0" y="-0.2" fill="#FFFFFF" width="24.5" height="30.6"/>
<path fill="#004056" d="M12.6,1c-5.5,0-9.9,4.4-9.9,9.9s4.4,9.9,9.9,9.9c5.5,0,9.9-4.4,9.9-9.9S18.1,1,12.6,1z M18,8.4
	c0,0.1-0.1,0.2-0.2,0.3c-0.1,0.2-0.3,0.4-0.5,0.5c-0.1,0.1-0.2,0.2-0.3,0.3c0,0,0,0.1,0,0.1c0,0.1,0,0.2,0,0.3c0,0.3,0,0.6-0.1,0.9
	c-0.1,0.4-0.1,0.7-0.3,1.1c-0.1,0.4-0.3,0.7-0.5,1c-0.2,0.4-0.4,0.7-0.7,1c-0.1,0.1-0.2,0.3-0.3,0.4c-0.2,0.2-0.5,0.5-0.7,0.7
	c-0.2,0.2-0.5,0.3-0.7,0.5c-0.3,0.2-0.7,0.3-1,0.4c-0.4,0.1-0.7,0.2-1.1,0.2c-0.2,0-0.5,0-0.7,0c-0.1,0-0.2,0-0.4,0
	c-0.2,0-0.4,0-0.6,0c-0.3,0-0.6-0.1-0.9-0.2c-0.3-0.1-0.7-0.2-1-0.4c-0.2-0.1-0.5-0.2-0.7-0.4c0,0,0,0,0,0c0,0,0,0,0,0c0,0,0,0,0,0
	c0.1,0,0.2,0,0.3,0c0.1,0,0.3,0,0.4,0c0.1,0,0.2,0,0.3,0C8.5,15.1,8.7,15,9,15c0.3-0.1,0.6-0.2,0.9-0.3c0.2-0.1,0.4-0.2,0.6-0.4
	c0,0,0,0,0,0c-0.1,0-0.2,0-0.2,0c-0.2,0-0.4-0.1-0.6-0.2c-0.3-0.1-0.5-0.3-0.7-0.5c-0.2-0.2-0.4-0.5-0.5-0.8c0-0.1,0-0.1,0.1-0.1
	c0.1,0,0.3,0,0.4,0c0.1,0,0.3,0,0.4-0.1c-0.1,0-0.2-0.1-0.3-0.1c-0.2-0.1-0.4-0.2-0.6-0.4C8.2,12,8,11.7,7.9,11.5
	c-0.1-0.2-0.2-0.5-0.2-0.8c0-0.1,0-0.1,0-0.2c0-0.1,0-0.1,0.1,0c0.2,0.1,0.5,0.2,0.8,0.2c0,0,0,0,0,0c0,0,0,0,0.1,0
	c-0.1-0.1-0.2-0.2-0.3-0.3C8.1,10.3,8,10.1,7.9,10C7.8,9.7,7.7,9.4,7.7,9.1c0-0.4,0-0.8,0.2-1.2c0-0.1,0.1-0.1,0.1-0.2
	C8,7.7,8,7.7,8,7.8C8.1,7.9,8.2,8,8.3,8.1c0.2,0.3,0.5,0.5,0.8,0.7C9.4,9,9.6,9.2,9.9,9.3c0.3,0.2,0.7,0.3,1,0.4
	c0.4,0.1,0.7,0.2,1.1,0.3c0.1,0,0.3,0,0.4,0c0.1,0,0.1,0,0.1-0.1c0-0.2,0-0.3,0-0.5c0-0.3,0.1-0.5,0.2-0.8c0.1-0.3,0.3-0.5,0.5-0.7
	c0.3-0.3,0.7-0.5,1.1-0.6c0.1,0,0.2,0,0.2,0c0,0,0,0,0,0c0,0,0,0,0,0c0,0,0,0,0,0c0.1,0,0.2,0,0.3,0c0.1,0,0.1,0,0.2,0
	c0.1,0,0.2,0,0.4,0.1c0.2,0.1,0.5,0.2,0.6,0.4c0.1,0.1,0.1,0.1,0.2,0.2c0,0,0.1,0,0.1,0c0.4-0.1,0.8-0.2,1.1-0.4c0,0,0.1,0,0.1-0.1
	c0,0,0,0,0.1,0c0,0,0,0,0,0.1c-0.1,0.2-0.1,0.3-0.2,0.4c-0.2,0.3-0.4,0.5-0.6,0.7c0,0,0,0-0.1,0c0,0,0,0,0,0c0.1,0,0.2,0,0.3-0.1
	C17.4,8.6,17.6,8.5,18,8.4C17.9,8.4,18,8.4,18,8.4C18,8.4,18,8.4,18,8.4z"/>
</svg>
