<?xml version="1.0" encoding="utf-8"?>
<!-- Generator: Adobe Illustrator 18.1.1, SVG Export Plug-In . SVG Version: 6.00 Build 0)  -->
<!DOCTYPE svg PUBLIC "-//W3C//DTD SVG 1.1//EN" "http://www.w3.org/Graphics/SVG/1.1/DTD/svg11.dtd">
<svg version="1.1" id="Layer_1" xmlns="http://www.w3.org/2000/svg" xmlns:xlink="http://www.w3.org/1999/xlink" x="0px" y="0px"
	 viewBox="0 0 43.2 43.2" enable-background="new 0 0 43.2 43.2" xml:space="preserve">
<path fill="#004056" d="M21.6,11.7c-5.5,0-9.9,4.4-9.9,9.9s4.4,9.9,9.9,9.9c5.5,0,9.9-4.4,9.9-9.9S27.1,11.7,21.6,11.7z M27,19.1
	c0,0.1-0.1,0.2-0.2,0.3c-0.1,0.2-0.3,0.4-0.5,0.5c-0.1,0.1-0.2,0.2-0.3,0.3c0,0,0,0.1,0,0.1c0,0.1,0,0.2,0,0.3c0,0.3,0,0.6-0.1,0.9
	c-0.1,0.4-0.1,0.7-0.3,1.1c-0.1,0.4-0.3,0.7-0.5,1c-0.2,0.4-0.4,0.7-0.7,1c-0.1,0.1-0.2,0.3-0.3,0.4c-0.2,0.2-0.5,0.5-0.7,0.7
	c-0.2,0.2-0.5,0.3-0.7,0.5c-0.3,0.2-0.7,0.3-1,0.4c-0.4,0.1-0.7,0.2-1.1,0.2c-0.2,0-0.5,0-0.7,0c-0.1,0-0.2,0-0.4,0
	c-0.2,0-0.4,0-0.6,0c-0.3,0-0.6-0.1-0.9-0.2c-0.3-0.1-0.7-0.2-1-0.4c-0.2-0.1-0.5-0.2-0.7-0.4c0,0,0,0,0,0c0,0,0,0,0,0c0,0,0,0,0,0
	c0.1,0,0.2,0,0.3,0c0.1,0,0.3,0,0.4,0c0.1,0,0.2,0,0.3,0c0.2,0,0.5-0.1,0.7-0.1c0.3-0.1,0.6-0.2,0.9-0.3c0.2-0.1,0.4-0.2,0.6-0.4
	c0,0,0,0,0,0c-0.1,0-0.2,0-0.2,0c-0.2,0-0.4-0.1-0.6-0.2c-0.3-0.1-0.5-0.3-0.7-0.5c-0.2-0.2-0.4-0.5-0.5-0.8c0-0.1,0-0.1,0.1-0.1
	c0.1,0,0.3,0,0.4,0c0.1,0,0.3,0,0.4-0.1c-0.1,0-0.2-0.1-0.3-0.1c-0.2-0.1-0.4-0.2-0.6-0.4c-0.2-0.2-0.4-0.4-0.6-0.7
	c-0.1-0.2-0.2-0.5-0.2-0.8c0-0.1,0-0.1,0-0.2c0-0.1,0-0.1,0.1,0c0.2,0.1,0.5,0.2,0.8,0.2c0,0,0,0,0,0c0,0,0,0,0.1,0
	c-0.1-0.1-0.2-0.2-0.3-0.3c-0.1-0.1-0.2-0.3-0.3-0.4c-0.1-0.3-0.2-0.5-0.3-0.8c0-0.4,0-0.8,0.2-1.2c0-0.1,0.1-0.1,0.1-0.2
	c0-0.1,0.1-0.1,0.1,0c0.1,0.1,0.2,0.2,0.3,0.3c0.2,0.3,0.5,0.5,0.8,0.7c0.2,0.2,0.5,0.3,0.8,0.5c0.3,0.2,0.7,0.3,1,0.4
	c0.4,0.1,0.7,0.2,1.1,0.3c0.1,0,0.3,0,0.4,0c0.1,0,0.1,0,0.1-0.1c0-0.2,0-0.3,0-0.5c0-0.3,0.1-0.5,0.2-0.8c0.1-0.3,0.3-0.5,0.5-0.7
	c0.3-0.3,0.7-0.5,1.1-0.6c0.1,0,0.2,0,0.2,0c0,0,0,0,0,0c0,0,0,0,0,0c0,0,0,0,0,0c0.1,0,0.2,0,0.3,0c0.1,0,0.1,0,0.2,0
	c0.1,0,0.2,0,0.4,0.1c0.2,0.1,0.5,0.2,0.6,0.4c0.1,0.1,0.1,0.1,0.2,0.2c0,0,0.1,0,0.1,0c0.4-0.1,0.8-0.2,1.1-0.4c0,0,0.1,0,0.1-0.1
	c0,0,0,0,0.1,0c0,0,0,0,0,0.1c-0.1,0.2-0.1,0.3-0.2,0.4c-0.2,0.3-0.4,0.5-0.6,0.7c0,0,0,0-0.1,0c0,0,0,0,0,0c0.1,0,0.2,0,0.3-0.1
	C26.3,19.3,26.6,19.2,27,19.1C26.9,19.1,27,19.1,27,19.1C27,19.1,27,19.1,27,19.1z"/>
</svg>
