<?xml version="1.0" encoding="utf-8"?>
<!-- Generator: Adobe Illustrator 18.1.1, SVG Export Plug-In . SVG Version: 6.00 Build 0)  -->
<!DOCTYPE svg PUBLIC "-//W3C//DTD SVG 1.1//EN" "http://www.w3.org/Graphics/SVG/1.1/DTD/svg11.dtd">
<svg version="1.1" id="Layer_1" xmlns="http://www.w3.org/2000/svg" xmlns:xlink="http://www.w3.org/1999/xlink" x="0px" y="0px"
	 viewBox="0 0 43.2 43.2" enable-background="new 0 0 43.2 43.2" xml:space="preserve">
<path fill="#004056" d="M21.6,1.9c-10.9,0-19.8,8.8-19.8,19.8s8.8,19.8,19.8,19.8c10.9,0,19.8-8.8,19.8-19.8S32.5,1.9,21.6,1.9z
	 M32.4,16.6c-0.1,0.2-0.3,0.4-0.4,0.6c-0.3,0.4-0.6,0.7-1,1c-0.2,0.2-0.5,0.4-0.7,0.6c-0.1,0-0.1,0.1-0.1,0.2c0,0.2,0,0.4,0,0.6
	c0,0.6-0.1,1.1-0.1,1.7c-0.1,0.7-0.3,1.4-0.5,2.1c-0.2,0.7-0.5,1.4-0.9,2.1c-0.4,0.7-0.8,1.4-1.3,2c-0.2,0.3-0.4,0.5-0.7,0.7
	c-0.5,0.5-1,0.9-1.5,1.3c-0.5,0.4-1,0.7-1.5,1c-0.6,0.3-1.3,0.6-2,0.9c-0.7,0.2-1.4,0.4-2.2,0.5C19,32,18.5,32,18.1,32
	c-0.2,0-0.5,0-0.7,0c-0.4,0-0.8,0-1.2,0c-0.6-0.1-1.2-0.2-1.8-0.3c-0.7-0.2-1.4-0.4-2-0.7c-0.5-0.2-1-0.5-1.4-0.8c0,0-0.1,0-0.1-0.1
	c0,0,0,0,0-0.1c0,0,0,0,0.1,0c0.2,0,0.4,0,0.5,0c0.3,0,0.5,0,0.8,0c0.2,0,0.4,0,0.5,0c0.5-0.1,1-0.1,1.4-0.3
	c0.6-0.2,1.2-0.4,1.7-0.7c0.4-0.2,0.8-0.5,1.2-0.7c0,0,0,0,0.1-0.1c-0.2,0-0.3,0-0.5-0.1c-0.4-0.1-0.8-0.2-1.1-0.3
	c-0.6-0.3-1.1-0.6-1.5-1.1c-0.4-0.4-0.7-1-0.9-1.5c0-0.1,0-0.2,0.1-0.1c0.3,0,0.5,0.1,0.8,0.1c0.3,0,0.6,0,0.9-0.1
	c-0.2-0.1-0.4-0.1-0.6-0.2c-0.4-0.2-0.8-0.4-1.2-0.7c-0.5-0.4-0.8-0.9-1.1-1.4c-0.2-0.5-0.4-1-0.4-1.5c0-0.1,0-0.3,0-0.4
	c0-0.1,0.1-0.1,0.2-0.1c0.5,0.2,1,0.4,1.5,0.5c0,0,0.1,0,0.1,0c0,0,0.1,0,0.1,0c-0.2-0.2-0.4-0.4-0.6-0.6c-0.3-0.3-0.5-0.6-0.7-0.9
	c-0.3-0.5-0.5-1-0.5-1.6c-0.1-0.8,0-1.6,0.3-2.3c0.1-0.1,0.1-0.3,0.2-0.4c0.1-0.1,0.1-0.1,0.2,0c0.2,0.2,0.4,0.4,0.6,0.7
	c0.5,0.5,1,1,1.6,1.4c0.5,0.4,1,0.7,1.6,1c0.6,0.3,1.3,0.6,2,0.9c0.7,0.2,1.5,0.4,2.2,0.5c0.3,0,0.5,0.1,0.8,0.1
	c0.1,0,0.1,0,0.1-0.1c-0.1-0.3-0.1-0.6-0.1-1c0-0.5,0.1-1.1,0.3-1.6c0.2-0.6,0.6-1.1,1-1.5c0.6-0.6,1.4-1,2.2-1.2c0.2,0,0.3,0,0.5,0
	c0,0,0,0,0,0c0,0,0.1,0,0.1,0c0,0,0.1,0,0.1,0c0.2,0,0.4,0,0.6,0c0.1,0,0.3,0,0.4,0c0.2,0,0.5,0.1,0.7,0.2c0.5,0.2,0.9,0.4,1.3,0.7
	c0.1,0.1,0.2,0.2,0.4,0.3c0.1,0.1,0.1,0.1,0.2,0.1c0.8-0.2,1.6-0.4,2.3-0.8c0.1,0,0.2-0.1,0.3-0.1c0,0,0.1,0,0.1,0c0,0,0,0.1,0,0.1
	c-0.1,0.3-0.3,0.6-0.4,0.9c-0.3,0.5-0.8,1-1.3,1.3c0,0-0.1,0-0.1,0.1c0,0,0,0,0,0c0.2-0.1,0.4-0.1,0.5-0.1c0.6-0.1,1.2-0.3,1.7-0.5
	C32.3,16.6,32.3,16.5,32.4,16.6C32.4,16.6,32.4,16.6,32.4,16.6z"/>
</svg>
